<?xml version="1.0" encoding="UTF-8" standalone="no"?>
<svg
   viewBox="0 0 1560 512"
   width="1560"
   height="512"
   version="1.1"
   id="svg9"
   xmlns="http://www.w3.org/2000/svg"
   xmlns:svg="http://www.w3.org/2000/svg">
  <defs
     id="defs9" />
  <!-- FirmwareForge Ltd. horizontal lockup (editable text source) -->
  <g
     id="g9">
    <!-- Icon -->
    <g
       transform="translate(-30,0) scale(0.94) translate(0,16)"
       id="g6">
      <path
         fill="#F0751D"
         d="M112 82 H408 L364 148 H150 Z"
         id="path1" />
      <path
         fill="#1A222C"
         d="M184 162 H344 C398 166 440 184 456 208 C464 220 460 234 446 238 C412 258 378 266 344 268 H290 C276 268 266 278 266 292 V370 C266 396 300 412 336 428 C344 432 348 436 348 442 H170 C170 435 175 430 184 426 Z"
         id="path2" />
      <g
         stroke="#F0751D"
         stroke-width="16"
         fill="none"
         stroke-linecap="round"
         id="g5">
        <path
           d="M186 202 H128"
           id="path3" />
        <circle
           cx="104"
           cy="202"
           r="13"
           id="circle3" />
        <path
           d="M186 250 H94"
           id="path4" />
        <circle
           cx="70"
           cy="250"
           r="13"
           id="circle4" />
        <path
           d="M186 298 H128"
           id="path5" />
        <circle
           cx="104"
           cy="298"
           r="13"
           id="circle5" />
      </g>
    </g>
    <!-- Wordmark -->
    <g
       id="text6"
       style="font-weight:700;font-size:140px;font-family:Inter;fill:#1a222c"
       aria-label="FirmwareForge">
      <path
         d="M 461.22852,286 V 184.14453 h 66.99218 v 17.29492 h -46.14258 v 28.4375 h 41.63086 v 17.02149 H 482.07812 V 286 Z m 81.68945,0 v -76.42578 h 20.50781 V 286 Z m 10.2539,-86.40625 q -4.64843,0 -7.92968,-3.07617 -3.28125,-3.07617 -3.28125,-7.45117 0,-4.375 3.28125,-7.45118 3.28125,-3.07617 7.92968,-3.07617 4.64844,0 7.92969,3.07617 3.34961,3.07618 3.34961,7.45118 0,4.375 -3.34961,7.45117 -3.28125,3.07617 -7.92969,3.07617 z M 580.85742,286 v -76.42578 h 19.82422 v 13.33008 h 0.82031 q 2.11914,-7.04102 7.04102,-10.66407 4.99023,-3.6914 11.41601,-3.6914 3.48633,0 6.63086,0.68359 v 18.32031 q -1.36718,-0.41015 -4.0332,-0.68359 -2.59766,-0.3418 -4.85352,-0.3418 -7.10937,0 -11.75781,4.44336 -4.58008,4.44336 -4.58008,11.55274 V 286 Z m 58.03711,0 v -76.42578 h 19.00391 l 0.82031,14.83398 q 3.07617,-8.33984 9.02344,-12.16797 5.94726,-3.82812 12.7832,-3.82812 14.49219,0 19.6875,17.1582 3.21289,-8.81836 9.91211,-12.98828 6.76758,-4.16992 14.62891,-4.16992 10.52734,0 17.43164,6.83594 6.97265,6.76757 6.97265,19.20898 V 286 h -20.50781 v -47.64648 q 0,-6.42579 -3.55469,-9.57032 -3.48633,-3.21289 -8.61328,-3.21289 -5.81055,0 -9.22851,3.69141 -3.34961,3.6914 -3.34961,9.70703 V 286 h -19.82422 v -48.19336 q 0,-5.60547 -3.34961,-8.88672 -3.28125,-3.34961 -8.54492,-3.34961 -5.40039,0 -9.0918,3.69141 -3.69141,3.62305 -3.69141,10.52734 V 286 Z m 143.69141,0 -22.5586,-76.42578 h 21.53321 l 6.63086,28.23242 q 1.36718,6.35742 3.00781,13.67188 1.64062,7.31445 3.21289,15.85937 1.57226,-8.33984 3.28125,-15.6543 1.77734,-7.38281 3.34961,-13.87695 l 6.97265,-28.23242 h 18.86719 l 6.83594,28.23242 q 1.43555,6.49414 3.14453,13.80859 1.77734,7.31446 3.41797,15.79102 1.43555,-8.47656 3.00781,-15.79102 1.57227,-7.31445 3.07617,-13.80859 l 6.63086,-28.23242 h 21.80664 L 852.10742,286 h -20.84961 l -8.47656,-29.46289 q -1.43555,-4.92188 -2.80273,-11.07422 -1.29883,-6.15234 -2.66602,-12.16797 -1.29883,6.01563 -2.66602,12.23633 -1.36718,6.15234 -2.73437,11.00586 L 803.43555,286 Z m 124.07226,1.50391 q -10.9375,0 -18.18359,-5.74219 -7.24609,-5.81055 -7.24609,-17.1582 0,-8.54493 4.10156,-13.39844 4.10156,-4.85352 10.66406,-7.10938 6.5625,-2.25586 14.08203,-2.93945 9.84375,-0.95703 14.15039,-1.98242 4.375,-1.09375 4.375,-4.85352 v -0.34179 q 0,-4.85352 -3.14453,-7.51954 -3.07617,-2.66601 -8.81836,-2.66601 -5.94726,0 -9.57031,2.59765 -3.62305,2.5293 -4.85352,6.22071 l -18.79882,-3.14453 q 2.93945,-9.91211 11.68945,-15.38086 8.81836,-5.46875 21.60156,-5.46875 8.20313,0 15.58594,2.59765 7.45117,2.59766 12.09961,8.33985 4.71679,5.67383 4.71679,14.9707 V 286 h -19.41406 v -10.5957 h -0.68359 q -2.80274,5.33203 -8.33985,8.75 -5.5371,3.34961 -14.01367,3.34961 z m 5.81055,-14.42383 q 7.17773,0 11.68945,-4.16992 4.58008,-4.16993 4.58008,-10.25391 v -8.27148 q -1.23047,0.88867 -4.0332,1.57226 -2.73438,0.61524 -5.81055,1.16211 -3.07617,0.47852 -5.33203,0.75195 -5.67383,0.82032 -9.16016,3.21289 -3.48632,2.39258 -3.48632,6.97266 0,4.44336 3.21289,6.76758 3.28125,2.25586 8.33984,2.25586 z M 966.60937,286 v -76.42578 h 19.82422 v 13.33008 h 0.82032 q 2.11914,-7.04102 7.04101,-10.66407 4.99024,-3.6914 11.41598,-3.6914 3.4864,0 6.6309,0.68359 v 18.32031 q -1.3672,-0.41015 -4.0332,-0.68359 -2.5977,-0.3418 -4.8535,-0.3418 -7.1094,0 -11.75783,4.44336 -4.58008,4.44336 -4.58008,11.55274 V 286 Z m 88.11523,1.50391 q -11.6894,0 -20.166,-4.78516 -8.4766,-4.78516 -13.0566,-13.60352 -4.5118,-8.81836 -4.5118,-20.91796 0,-11.82618 4.5118,-20.7129 4.58,-8.88671 12.7832,-13.87695 8.2714,-4.99023 19.414,-4.99023 9.9805,0 18.1153,4.23828 8.1347,4.23828 12.9199,12.85156 4.8535,8.61328 4.8535,21.66992 v 5.74219 h -52.2949 q 0.3418,9.36523 5.1953,14.15039 4.8535,4.78516 12.5781,4.78516 5.4004,0 9.2285,-2.25586 3.8965,-2.32422 5.5371,-6.76758 l 18.5938,3.48633 q -2.8028,9.50195 -11.6211,15.24414 -8.75,5.74219 -22.0801,5.74219 z m -17.2949,-47.23633 h 32.4023 q -0.7519,-7.45117 -4.7851,-11.82617 -4.0332,-4.375 -11.1426,-4.375 -7.3828,0 -11.6211,4.58007 -4.2383,4.51172 -4.8535,11.6211 z"
         id="path9" />
      <path
         style="fill:#f0751d"
         d="M 1104.0801,286 V 184.14453 h 66.9922 v 17.29492 h -46.1426 v 28.4375 h 41.6308 v 17.02149 h -41.6308 V 286 Z m 111.8359,1.50391 q -11.4844,0 -19.8926,-4.92188 -8.4082,-4.99023 -12.9882,-13.80859 -4.5118,-8.88672 -4.5118,-20.64453 0,-11.82618 4.5118,-20.71289 4.58,-8.88672 12.9882,-13.8086 8.4082,-4.99023 19.8926,-4.99023 11.4844,0 19.8926,4.99023 8.4082,4.92188 12.9199,13.8086 4.5801,8.88671 4.5801,20.71289 0,11.75781 -4.5801,20.64453 -4.5117,8.81836 -12.9199,13.80859 -8.4082,4.92188 -19.8926,4.92188 z m 0,-16.13282 q 8.2031,0 12.3731,-6.63086 4.1699,-6.63086 4.1699,-16.67968 0,-10.11719 -4.1699,-16.67969 -4.17,-6.63086 -12.3731,-6.63086 -8.2031,0 -12.373,6.63086 -4.1016,6.5625 -4.1016,16.67969 0,10.04882 4.1016,16.67968 4.1699,6.63086 12.373,6.63086 z M 1267.5957,286 v -76.42578 h 19.8242 v 13.33008 h 0.8203 q 2.1192,-7.04102 7.0411,-10.66407 4.9902,-3.6914 11.416,-3.6914 3.4863,0 6.6308,0.68359 v 18.32031 q -1.3672,-0.41015 -4.0332,-0.68359 -2.5976,-0.3418 -4.8535,-0.3418 -7.1094,0 -11.7578,4.44336 -4.5801,4.44336 -4.5801,11.55274 V 286 Z m 87.5684,30.21484 q -14.3555,0 -23.1055,-5.26367 -8.75,-5.26367 -11.2793,-13.4668 l 17.6367,-4.92187 q 1.4356,3.21289 5.2637,5.94727 3.8965,2.80273 11.3476,2.80273 7.793,0 12.3047,-3.62305 4.5118,-3.55468 4.5118,-11.14258 v -14.08203 h -1.5723 q -2.1192,4.64844 -7.041,8.54493 -4.8535,3.89648 -14.1504,3.89648 -8.6133,0 -15.6543,-4.0332 -7.041,-4.03321 -11.2793,-12.30469 -4.1699,-8.27149 -4.1699,-20.91797 0,-12.91992 4.2382,-21.60156 4.3067,-8.68164 11.3477,-13.05664 7.1094,-4.375 15.5859,-4.375 6.4258,0 10.8008,2.1875 4.375,2.1875 7.041,5.40039 2.7344,3.21289 4.1016,6.2207 h 0.8887 v -12.85156 h 20.166 v 75.81055 q 0,10.32226 -4.7852,17.1582 -4.7168,6.9043 -13.125,10.2539 -8.3398,3.41797 -19.0722,3.41797 z m 0.3418,-46.89453 q 7.8613,0 12.0996,-5.74219 4.3066,-5.81054 4.3066,-16.06445 0,-10.18555 -4.2383,-16.33789 -4.2383,-6.15234 -12.1679,-6.15234 -8.0664,0 -12.3047,6.35742 -4.1699,6.28906 -4.1699,16.13281 0,10.04883 4.2382,15.92774 4.2383,5.8789 12.2364,5.8789 z m 88.6621,18.1836 q -11.6895,0 -20.166,-4.78516 -8.4766,-4.78516 -13.0567,-13.60352 -4.5117,-8.81836 -4.5117,-20.91796 0,-11.82618 4.5117,-20.7129 4.5801,-8.88671 12.7832,-13.87695 8.2715,-4.99023 19.4141,-4.99023 9.9804,0 18.1152,4.23828 8.1348,4.23828 12.9199,12.85156 4.8536,8.61328 4.8536,21.66992 v 5.74219 h -52.295 q 0.3418,9.36523 5.1953,14.15039 4.8536,4.78516 12.5782,4.78516 5.4004,0 9.2285,-2.25586 3.8965,-2.32422 5.5371,-6.76758 l 18.5937,3.48633 q -2.8027,9.50195 -11.6211,15.24414 -8.75,5.74219 -22.08,5.74219 z m -17.295,-47.23633 h 32.4024 q -0.752,-7.45117 -4.7852,-11.82617 -4.0332,-4.375 -11.1425,-4.375 -7.3829,0 -11.6211,4.58007 -4.2383,4.51172 -4.8536,11.6211 z"
         id="path10" />
    </g>
    <path
       d="m 1419.2227,176 v -32.01172 h 5.7363 v 27.17774 h 14.1367 V 176 Z m 34.7402,-24.01953 v 4.38281 h -4.6406 v 12.86914 q 0,1.31055 0.5371,1.9336 0.5586,0.60156 1.8476,0.60156 0.3868,0 1.0098,-0.0859 0.623,-0.10742 1.0312,-0.19336 l 0.8809,4.31836 q -0.9238,0.2793 -1.8906,0.38672 -0.9668,0.12891 -1.8477,0.12891 -3.459,0 -5.3066,-1.71875 -1.8477,-1.71875 -1.8477,-4.89844 v -13.3418 h -3.416 v -4.38281 h 3.416 v -5.71485 h 5.586 v 5.71485 z m 12.8476,24.44922 q -2.8359,0 -5.0917,-1.43946 -2.2344,-1.46093 -3.5235,-4.23242 -1.289,-2.77148 -1.289,-6.72461 0,-3.99609 1.3105,-6.74609 1.3105,-2.77149 3.5449,-4.18945 2.2559,-1.41797 5.0274,-1.41797 2.1484,0 3.5019,0.73047 1.375,0.70898 2.1699,1.71875 0.795,0.98828 1.2246,1.82617 h 0.2364 v -11.9668 h 5.5859 V 176 h -5.4785 v -3.80273 h -0.3438 q -0.4511,0.85937 -1.2675,1.84765 -0.8164,0.98828 -2.1914,1.69727 -1.3536,0.6875 -3.4161,0.6875 z m 1.5254,-4.59766 q 2.7286,0 4.211,-2.14844 1.4824,-2.16992 1.4824,-5.67187 0,-3.50195 -1.4824,-5.60742 -1.461,-2.12696 -4.211,-2.12696 -2.8359,0 -4.2754,2.19141 -1.4394,2.19141 -1.4394,5.54297 0,3.37305 1.4394,5.60742 1.461,2.21289 4.2754,2.21289 z m 21.1192,4.5332 q -1.4395,0 -2.4492,-0.98828 -0.9883,-0.98828 -0.9883,-2.44922 0,-1.43945 0.9883,-2.42773 1.0097,-0.98828 2.4492,-0.98828 1.4609,0 2.4492,0.98828 1.0098,0.98828 1.0098,2.42773 0,1.46094 -1.0098,2.44922 -0.9883,0.98828 -2.4492,0.98828 z"
       id="text7"
       style="font-weight:600;font-size:44px;font-family:Inter;fill:#1a222c"
       aria-label="Ltd." />
    <!-- Tagline -->
    <g
       id="text9"
       style="font-weight:500;font-size:52px;font-family:Inter;letter-spacing:10;fill:#3a4552"
       aria-label="Code. Hardware. Impact.">
      <path
         d="m 477.90625,384.50781 q -4.92578,0 -8.78516,-2.33594 -3.83398,-2.33593 -6.04297,-6.67773 -2.20898,-4.3418 -2.20898,-10.38477 0,-6.06835 2.20898,-10.41015 2.23438,-4.36719 6.06836,-6.70313 3.85938,-2.33593 8.75977,-2.33593 3.98633,0 7.28711,1.52343 3.30078,1.49805 5.48437,4.36719 2.1836,2.84375 2.81836,6.85547 h -5.81445 q -0.71094,-3.60547 -3.45312,-5.53516 -2.7168,-1.92968 -6.27149,-1.92968 -3.25,0 -5.81445,1.65039 -2.56446,1.625 -4.0625,4.79882 -1.47266,3.14844 -1.47266,7.71875 0,4.59571 1.47266,7.74415 1.49804,3.14843 4.0625,4.77343 2.56445,1.59961 5.81445,1.59961 3.55469,0 6.27149,-1.92969 2.74218,-1.95507 3.45312,-5.56054 h 5.83984 q -0.58398,3.75781 -2.71679,6.62695 -2.10742,2.86914 -5.4336,4.51953 -3.30078,1.625 -7.46484,1.625 z m 43.92187,0.0762 q -3.98632,0 -6.98242,-1.82812 -2.9707,-1.82813 -4.62109,-5.10352 -1.65039,-3.30078 -1.65039,-7.69336 0,-4.41796 1.65039,-7.71875 1.65039,-3.32617 4.62109,-5.15429 2.9961,-1.82813 6.98242,-1.82813 4.01172,0 6.98243,1.82813 2.99609,1.82812 4.64648,5.15429 1.65039,3.30079 1.65039,7.71875 0,4.39258 -1.65039,7.69336 -1.65039,3.27539 -4.64648,5.10352 -2.97071,1.82812 -6.98243,1.82812 z m 0,-4.72265 q 2.58985,0 4.26563,-1.34571 1.70117,-1.37109 2.51367,-3.60546 0.83789,-2.25977 0.83789,-4.95118 0,-2.71679 -0.83789,-4.97656 -0.8125,-2.28515 -2.51367,-3.63086 -1.67578,-1.37109 -4.26563,-1.37109 -2.56445,0 -4.24023,1.37109 -1.67578,1.34571 -2.51367,3.63086 -0.8125,2.25977 -0.8125,4.97656 0,2.69141 0.8125,4.95118 0.83789,2.23437 2.51367,3.60546 1.67578,1.34571 4.24023,1.34571 z m 40.03711,4.69726 q -3.45312,0 -6.14453,-1.75195 -2.66601,-1.75195 -4.21484,-5.05273 -1.52344,-3.30079 -1.52344,-7.8711 0,-4.62109 1.54883,-7.89648 1.54883,-3.27539 4.21484,-5.00196 2.69141,-1.72656 6.11914,-1.72656 2.64063,0 4.26563,0.88867 1.625,0.86329 2.51367,2.05664 0.91406,1.16797 1.39649,2.03125 h 0.30468 v -14.0664 h 5.58594 V 384 h -5.43359 v -4.44336 h -0.45703 q -0.50782,0.91406 -1.44727,2.08203 -0.91406,1.16797 -2.53906,2.05664 -1.625,0.86328 -4.18946,0.86328 z m 1.21875,-4.74804 q 3.55469,0 5.45899,-2.76758 1.9043,-2.76758 1.9043,-7.21094 0,-4.41797 -1.87891,-7.10937 -1.87891,-2.7168 -5.48438,-2.7168 -2.46289,0 -4.11328,1.29492 -1.625,1.29492 -2.46289,3.5293 -0.8125,2.20898 -0.8125,5.00195 0,2.81836 0.83789,5.07813 0.83789,2.25976 2.48828,3.58007 1.65039,1.32032 4.0625,1.32032 z m 42.60157,4.77343 q -4.18946,0 -7.23633,-1.80273 -3.04688,-1.80273 -4.69727,-5.07813 -1.625,-3.27539 -1.625,-7.69335 0,-4.36719 1.59961,-7.69336 1.625,-3.32618 4.57031,-5.17969 2.94532,-1.87891 6.90625,-1.87891 3.22461,0 6.11915,1.44727 2.91992,1.42187 4.72265,4.57031 1.82813,3.12305 1.82813,8.25195 v 1.98047 h -20.13477 q 0.15234,4.11328 2.33594,6.29688 2.18359,2.1582 5.66211,2.1582 2.33594,0 4.01172,-1.01562 1.70117,-1.01563 2.4375,-2.9961 l 5.25586,1.24414 q -1.01563,3.32617 -4.11329,5.35742 -3.09765,2.03125 -7.64257,2.03125 z m -7.92188,-17.24023 h 14.57422 q -0.30469,-3.35156 -2.10742,-5.4082 -1.77735,-2.05664 -5.00195,-2.05664 -3.35157,0 -5.30665,2.20898 -1.92968,2.18359 -2.1582,5.25586 z"
         id="path11" />
      <path
         style="fill:#f0751d"
         d="m 638.13086,384.38086 q -1.57422,0 -2.66602,-1.06641 -1.09179,-1.09179 -1.09179,-2.66601 0,-1.57422 1.09179,-2.66602 1.0918,-1.0918 2.66602,-1.0918 1.57422,0 2.64062,1.0918 1.0918,1.0918 1.0918,2.66602 0,1.57422 -1.0918,2.66601 -1.0664,1.06641 -2.64062,1.06641 z"
         id="path12" />
      <path
         d="m 684.05469,384 v -37.83203 h 5.78906 v 15.99609 h 18.73828 v -15.99609 h 5.81445 V 384 h -5.81445 V 367.14062 H 689.84375 V 384 Z m 56.23633,0.63477 q -2.7168,0 -4.9004,-0.99024 -2.1582,-1.01562 -3.42773,-2.94531 -1.26953,-1.92969 -1.26953,-4.72266 0,-2.41211 0.93945,-3.96094 0.93946,-1.57421 2.51367,-2.46289 1.57422,-0.91406 3.50391,-1.37109 1.95508,-0.45703 3.96094,-0.68555 3.75781,-0.43164 5.45898,-0.73632 1.70117,-0.33008 1.70117,-1.82813 v -0.15234 q 0,-2.36133 -1.39648,-3.65625 -1.37109,-1.32032 -4.03711,-1.32032 -2.79297,0 -4.39258,1.21875 -1.59961,1.21875 -2.18359,2.66602 l -5.25586,-1.37109 q 0.96484,-2.53907 2.76758,-4.08789 1.80273,-1.54883 4.11328,-2.25977 2.33594,-0.71094 4.875,-0.71094 1.70117,0 3.63086,0.40625 1.92969,0.40625 3.63086,1.47266 1.70117,1.04101 2.76758,2.99609 1.0664,1.95508 1.0664,5.02735 V 384 h -5.4082 v -3.88477 h -0.2793 q -0.83789,1.67579 -2.89453,3.09766 -2.03125,1.42188 -5.48437,1.42188 z m 1.24414,-4.49415 q 2.25976,0 3.88476,-0.88867 1.625,-0.91406 2.48828,-2.36133 0.88867,-1.44726 0.88867,-3.12304 v -3.63086 q -0.40625,0.40625 -1.75195,0.71094 -1.32031,0.27929 -2.79297,0.48242 -1.47265,0.20312 -2.33593,0.30469 -2.36133,0.33007 -4.0625,1.29492 -1.67579,0.93945 -1.67579,3.12304 0,2.03125 1.49805,3.07227 1.52344,1.01562 3.85938,1.01562 z M 771.87305,384 v -28.38672 h 5.4082 v 4.57031 h 0.30469 q 0.76172,-2.31054 2.71679,-3.63086 1.98047,-1.3457 4.46875,-1.3457 0.53321,0 1.21875,0.0508 0.71094,0.0508 1.14258,0.10156 v 5.33204 q -0.30469,-0.0762 -1.16797,-0.17774 -0.86328,-0.12695 -1.75195,-0.12695 -2.91992,0 -4.84961,1.80273 -1.9043,1.77735 -1.9043,4.57032 V 384 Z m 39.68164,0.55859 q -3.45313,0 -6.14453,-1.75195 -2.66602,-1.75195 -4.21485,-5.05273 -1.52344,-3.30079 -1.52344,-7.8711 0,-4.62109 1.54883,-7.89648 1.54883,-3.27539 4.21485,-5.00196 2.6914,-1.72656 6.11914,-1.72656 2.64062,0 4.26562,0.88867 1.625,0.86329 2.51367,2.05664 0.91407,1.16797 1.39649,2.03125 h 0.30469 v -14.0664 h 5.58593 V 384 h -5.43359 v -4.44336 h -0.45703 q -0.50781,0.91406 -1.44727,2.08203 -0.91406,1.16797 -2.53906,2.05664 -1.625,0.86328 -4.18945,0.86328 z m 1.21875,-4.74804 q 3.55468,0 5.45898,-2.76758 1.9043,-2.76758 1.9043,-7.21094 0,-4.41797 -1.87891,-7.10937 -1.8789,-2.7168 -5.48437,-2.7168 -2.46289,0 -4.11328,1.29492 -1.625,1.29492 -2.46289,3.5293 -0.8125,2.20898 -0.8125,5.00195 0,2.81836 0.83789,5.07813 0.83789,2.25976 2.48828,3.58007 1.65039,1.32032 4.0625,1.32032 z M 849.35742,384 840.82617,355.61328 h 5.89063 l 3.12304,11.75586 q 0.58399,2.28516 1.24414,5.02734 0.68555,2.7168 1.34571,6.04297 0.66015,-3.19922 1.32031,-5.9414 0.66016,-2.74219 1.29492,-5.12891 l 3.12305,-11.75586 h 5.58594 l 3.09765,11.75586 q 0.58399,2.31055 1.24414,5.05273 0.66016,2.7168 1.32032,5.9668 0.63476,-3.22461 1.29492,-5.9414 0.66015,-2.7168 1.26953,-5.07813 l 3.12305,-11.75586 h 5.9414 L 872.48828,384 h -5.61133 l -3.5039,-12.21289 q -0.63477,-2.23438 -1.24414,-4.72266 -0.60938,-2.51367 -1.19336,-5.07812 -0.60938,2.56445 -1.21875,5.10351 -0.60938,2.51368 -1.24414,4.69727 L 854.96875,384 Z m 54.78906,0.63477 q -2.71679,0 -4.90039,-0.99024 -2.1582,-1.01562 -3.42773,-2.94531 -1.26953,-1.92969 -1.26953,-4.72266 0,-2.41211 0.93945,-3.96094 0.93945,-1.57421 2.51367,-2.46289 1.57422,-0.91406 3.50391,-1.37109 1.95508,-0.45703 3.96094,-0.68555 3.75781,-0.43164 5.45898,-0.73632 1.70117,-0.33008 1.70117,-1.82813 v -0.15234 q 0,-2.36133 -1.39648,-3.65625 -1.3711,-1.32032 -4.03711,-1.32032 -2.79297,0 -4.39258,1.21875 -1.59961,1.21875 -2.18359,2.66602 l -5.25586,-1.37109 q 0.96484,-2.53907 2.76758,-4.08789 1.80273,-1.54883 4.11328,-2.25977 2.33593,-0.71094 4.875,-0.71094 1.70117,0 3.63086,0.40625 1.92968,0.40625 3.63086,1.47266 1.70117,1.04101 2.76757,2.99609 1.06641,1.95508 1.06641,5.02735 V 384 h -5.4082 v -3.88477 h -0.2793 q -0.83789,1.67579 -2.89453,3.09766 -2.03125,1.42188 -5.48438,1.42188 z m 1.24414,-4.49415 q 2.25977,0 3.88477,-0.88867 1.625,-0.91406 2.48828,-2.36133 0.88867,-1.44726 0.88867,-3.12304 v -3.63086 q -0.40625,0.40625 -1.75195,0.71094 -1.32031,0.27929 -2.79297,0.48242 -1.47265,0.20312 -2.33594,0.30469 -2.36132,0.33007 -4.0625,1.29492 -1.67578,0.93945 -1.67578,3.12304 0,2.03125 1.49805,3.07227 1.52344,1.01562 3.85937,1.01562 z M 935.72852,384 v -28.38672 h 5.4082 v 4.57031 h 0.30469 q 0.76171,-2.31054 2.71679,-3.63086 1.98047,-1.3457 4.46875,-1.3457 0.53321,0 1.21875,0.0508 0.71094,0.0508 1.14258,0.10156 v 5.33204 q -0.30469,-0.0762 -1.16797,-0.17774 -0.86328,-0.12695 -1.75195,-0.12695 -2.91992,0 -4.84961,1.80273 -1.9043,1.77735 -1.9043,4.57032 V 384 Z m 41.35742,0.58398 q -4.18946,0 -7.23633,-1.80273 -3.04688,-1.80273 -4.69727,-5.07813 -1.625,-3.27539 -1.625,-7.69335 0,-4.36719 1.59961,-7.69336 1.625,-3.32618 4.57032,-5.17969 2.94531,-1.87891 6.90625,-1.87891 3.2246,0 6.11914,1.44727 2.91992,1.42187 4.72265,4.57031 1.82813,3.12305 1.82813,8.25195 v 1.98047 h -20.13477 q 0.15235,4.11328 2.33594,6.29688 2.18359,2.1582 5.66211,2.1582 2.33594,0 4.01172,-1.01562 1.70117,-1.01563 2.4375,-2.9961 l 5.25586,1.24414 q -1.01563,3.32617 -4.11328,5.35742 -3.09766,2.03125 -7.64258,2.03125 z m -7.92188,-17.24023 h 14.57422 q -0.30469,-3.35156 -2.10742,-5.4082 -1.77734,-2.05664 -5.00195,-2.05664 -3.35157,0 -5.30664,2.20898 -1.92969,2.18359 -2.15821,5.25586 z"
         id="path13" />
      <path
         style="fill:#f0751d"
         d="m 1009.5312,384.38086 q -1.5742,0 -2.666,-1.06641 -1.0918,-1.09179 -1.0918,-2.66601 0,-1.57422 1.0918,-2.66602 1.0918,-1.0918 2.666,-1.0918 1.5743,0 2.6407,1.0918 1.0918,1.0918 1.0918,2.66602 0,1.57422 -1.0918,2.66601 -1.0664,1.06641 -2.6407,1.06641 z"
         id="path14" />
      <path
         d="M 1061.2441,346.16797 V 384 h -5.789 V 346.16797 Z M 1079.1914,384 v -28.38672 h 5.3066 l 0.127,5.30664 q 1.0918,-2.94531 3.2754,-4.36719 2.1836,-1.42187 4.7226,-1.42187 2.7676,0 4.5958,1.57422 1.8281,1.57422 2.666,4.39258 1.0664,-2.86914 3.5039,-4.41797 2.4629,-1.54883 5.4843,-1.54883 2.5137,0 4.545,1.0918 2.0312,1.09179 3.2246,3.25 1.2187,2.1582 1.2187,5.38281 V 384 h -5.5859 v -18.58594 q 0,-2.84375 -1.5996,-4.11328 -1.5742,-1.26953 -3.7324,-1.26953 -2.6407,0 -4.1641,1.625 -1.498,1.625 -1.498,4.16406 V 384 h -5.5098 v -18.94141 q 0,-2.28515 -1.4727,-3.65625 -1.4472,-1.37109 -3.707,-1.37109 -2.3359,0 -4.0879,1.625 -1.7266,1.59961 -1.7266,4.69727 V 384 Z m 56.1856,10.61328 v -39 h 5.4335 v 4.62109 h 0.4571 q 0.4824,-0.86328 1.3711,-2.03125 0.914,-1.19335 2.539,-2.05664 1.625,-0.88867 4.2911,-0.88867 3.4023,0 6.0683,1.72656 2.6914,1.72657 4.2402,5.00196 1.5489,3.27539 1.5489,7.89648 0,4.57031 -1.5235,7.8711 -1.5234,3.30078 -4.2148,5.05273 -2.666,1.75195 -6.1191,1.75195 -2.5899,0 -4.2149,-0.86328 -1.625,-0.88867 -2.5644,-2.05664 -0.9141,-1.16797 -1.4219,-2.08203 h -0.3047 v 15.05664 z m 12.8476,-14.80273 q 2.4375,0 4.0625,-1.32032 1.6504,-1.32031 2.4883,-3.58007 0.8379,-2.25977 0.8379,-5.07813 0,-2.79297 -0.8379,-5.00195 -0.8125,-2.23438 -2.4629,-3.5293 -1.625,-1.29492 -4.0879,-1.29492 -3.6055,0 -5.4844,2.7168 -1.8789,2.6914 -1.8789,7.10937 0,4.44336 1.9043,7.21094 1.9043,2.76758 5.459,2.76758 z m 37.752,4.82422 q -2.7168,0 -4.9004,-0.99024 -2.1582,-1.01562 -3.4278,-2.94531 -1.2695,-1.92969 -1.2695,-4.72266 0,-2.41211 0.9395,-3.96094 0.9394,-1.57421 2.5136,-2.46289 1.5743,-0.91406 3.5039,-1.37109 1.9551,-0.45703 3.961,-0.68555 3.7578,-0.43164 5.459,-0.73632 1.7011,-0.33008 1.7011,-1.82813 v -0.15234 q 0,-2.36133 -1.3965,-3.65625 -1.371,-1.32032 -4.0371,-1.32032 -2.7929,0 -4.3925,1.21875 -1.5996,1.21875 -2.1836,2.66602 l -5.2559,-1.37109 q 0.9649,-2.53907 2.7676,-4.08789 1.8027,-1.54883 4.1133,-2.25977 2.3359,-0.71094 4.875,-0.71094 1.7011,0 3.6308,0.40625 1.9297,0.40625 3.6309,1.47266 1.7012,1.04101 2.7676,2.99609 1.0664,1.95508 1.0664,5.02735 V 384 h -5.4082 v -3.88477 h -0.2793 q -0.8379,1.67579 -2.8946,3.09766 -2.0312,1.42188 -5.4843,1.42188 z m 1.2441,-4.49415 q 2.2598,0 3.8848,-0.88867 1.625,-0.91406 2.4883,-2.36133 0.8886,-1.44726 0.8886,-3.12304 v -3.63086 q -0.4062,0.40625 -1.7519,0.71094 -1.3203,0.27929 -2.793,0.48242 -1.4727,0.20312 -2.3359,0.30469 -2.3614,0.33007 -4.0625,1.29492 -1.6758,0.93945 -1.6758,3.12304 0,2.03125 1.498,3.07227 1.5235,1.01562 3.8594,1.01562 z m 42.2715,4.44336 q -4.0117,0 -6.9824,-1.82812 -2.9707,-1.82813 -4.6211,-5.10352 -1.6504,-3.30078 -1.6504,-7.69336 0,-4.41796 1.6504,-7.71875 1.6504,-3.32617 4.6211,-5.15429 2.9707,-1.82813 6.9824,-1.82813 4.418,0 7.6172,2.23438 3.2246,2.20898 4.2656,6.14453 l -5.3066,1.26953 q -0.584,-2.20898 -2.2852,-3.55469 -1.6758,-1.37109 -4.2656,-1.37109 -2.5645,0 -4.2656,1.3457 -1.6758,1.3457 -2.5137,3.63086 -0.8125,2.25977 -0.8125,5.00195 0,2.7168 0.8125,4.97657 0.8379,2.23437 2.5137,3.58007 1.7011,1.34571 4.2656,1.34571 2.6406,0 4.3672,-1.39649 1.7265,-1.42187 2.2851,-3.73242 l 5.2813,1.26953 q -1.041,4.01172 -4.2657,6.29688 -3.2246,2.28515 -7.6933,2.28515 z m 40.2148,-28.9707 v 4.54492 h -5.6621 v 16.17383 q 0,1.70117 0.711,2.51367 0.7363,0.78711 2.3867,0.78711 0.457,0 1.1426,-0.10156 0.7109,-0.10156 1.2187,-0.20313 l 0.9902,4.46875 q -0.8886,0.30469 -1.9296,0.43165 -1.0157,0.15234 -1.9805,0.15234 -3.8594,0 -5.9922,-1.98047 -2.1328,-2.00586 -2.1328,-5.61133 V 360.1582 h -4.1387 v -4.54492 h 4.1387 v -6.75391 h 5.5859 v 6.75391 z"
         id="path15" />
      <path
         style="fill:#f0751d"
         d="m 1289.4063,384.38086 q -1.5743,0 -2.6661,-1.06641 -1.0918,-1.09179 -1.0918,-2.66601 0,-1.57422 1.0918,-2.66602 1.0918,-1.0918 2.6661,-1.0918 1.5742,0 2.6406,1.0918 1.0918,1.0918 1.0918,2.66602 0,1.57422 -1.0918,2.66601 -1.0664,1.06641 -2.6406,1.06641 z"
         id="path16" />
    </g>
  </g>
</svg>
